<svg xmlns="http://www.w3.org/2000/svg" xmlns:xlink="http://www.w3.org/1999/xlink" fill="#000000" height="460.775" width="460.775" version="1.1" xml:space="preserve" style=""><rect id="backgroundrect" width="100%" height="100%" x="0" y="0" fill="none" stroke="none"/>

<g class="currentLayer" style=""><title>Layer 1</title><path d="M268.16949876595515,230.39405038041616 L386.39320197094463,112.17794607651976 c4.1973566401004785,-4.198047449290752 4.1973566401004785,-10.991465026438236 0,-15.188130857348442 L363.7989057846763,74.3872293226197 c-2.012327171266079,-2.0109455528855325 -4.7430959004163755,-3.1431818157434464 -7.593374619483948,-3.1431818157434464 c-2.850969528257847,0 -5.5817382574081424,1.1322362628579141 -7.594065428674221,3.1431818157434464 l-118.22370320498943,118.22508482336997 L112.16405932653925,74.3872293226197 c-2.012327171266079,-2.0109455528855325 -4.7430959004163755,-3.1431818157434464 -7.594065428674221,-3.1431818157434464 c-2.8502787190675742,0 -5.5817382574081424,1.1322362628579141 -7.593374619483948,3.1431818157434464 L74.38232309211276,96.98981521917133 c-4.198047449290752,4.196665830910206 -4.198047449290752,10.990083408057691 0,15.188130857348442 l118.22370320498943,118.21679511308669 L74.39406684834739,348.5970293096974 c-4.195975021719932,4.198047449290752 -4.195975021719932,10.991465026438236 0,15.188130857348442 l22.59567780464888,22.60258589655161 c2.0109455528855325,2.0109455528855325 4.742405091226101,3.1431818157434464 7.593374619483948,3.1431818157434464 c2.850969528257847,0 5.5817382574081424,-1.1322362628579141 7.5947562378644955,-3.1431818157434464 l118.20919621199369,-118.21126863956452 l118.20988702118396,118.21126863956452 c2.012327171266079,2.0109455528855325 4.7430959004163755,3.1431818157434464 7.594065428674221,3.1431818157434464 c2.85166033744812,0 5.582429066598415,-1.1322362628579141 7.593374619483948,-3.1431818157434464 l22.59567780464888,-22.60258589655161 c4.195975021719932,-4.196665830910206 4.195975021719932,-10.990083408057691 0,-15.188130857348442 L268.16949876595515,230.39405038041616 z" id="svg_1" class="selected" fill="#dbdbdb" fill-opacity="1"/></g></svg>